# xmcd
#
# Track frame offsets: 
#        150
#        25015
#        37080
#        62986
#        80763
#        90850
#        108244
#        130996
#        154027
#        169740
#        188489
#
# Disc length: 2783 seconds
#
# Revision: 0
# Processed by: cddbd v1.5.2PL0 Copyright (c) Steve Scherf et al.
# Submitted via: ExactAudioCopy v1.0b1
#
DISCID=830add0b
DTITLE=Humming People - Live at Halden Prison
DYEAR=2011
DGENRE=Blues
TTITLE0=Next Railway Train Station's Heaven
TTITLE1=No One's Richer
TTITLE2=Chewing On His Bones
TTITLE3=A Hope No Man Can Bind
TTITLE4=Bible or the Gun
TTITLE5=Stray Dog
TTITLE6=She's Got Nothing to Lose
TTITLE7=Home, Take Me Home
TTITLE8=Selfish Man
TTITLE9=Halden Prison Blues
TTITLE10=Ring of Fire - Folsom Prison Blues
EXTD=
EXTT0=
EXTT1=
EXTT2=
EXTT3=
EXTT4=
EXTT5=
EXTT6=
EXTT7=
EXTT8=
EXTT9=
EXTT10=
PLAYORDER=
